<svg xmlns="http://www.w3.org/2000/svg" width="24.257" height="24.257" viewBox="0 0 24.257 24.257"><path d="M24.257,12.691A12.13,12.13,0,0,1,8.539,24.276,13.634,13.634,0,0,0,10.045,21.1c.147-.567.753-2.885.753-2.885a3.248,3.248,0,0,0,2.778,1.394c3.658,0,6.294-3.365,6.294-7.546,0-4.005-3.272-7-7.478-7-5.233,0-8.016,3.511-8.016,7.341,0,1.78.949,4,2.46,4.7.23.108.352.059.406-.161.039-.166.245-.993.337-1.374a.363.363,0,0,0-.083-.347A4.776,4.776,0,0,1,6.6,12.446,5.248,5.248,0,0,1,12.08,7.184a4.788,4.788,0,0,1,5.067,4.935c0,3.282-1.658,5.556-3.815,5.556a1.759,1.759,0,0,1-1.795-2.191,24.371,24.371,0,0,0,1-4.04A1.523,1.523,0,0,0,11,9.737c-1.218,0-2.2,1.257-2.2,2.944a4.37,4.37,0,0,0,.362,1.8s-1.2,5.076-1.418,6.025a11.74,11.74,0,0,0-.044,3.482,12.13,12.13,0,1,1,16.549-11.3Z" transform="translate(0 -0.563)"/></svg>