<svg xmlns="http://www.w3.org/2000/svg" width="24.263" height="24.258" viewBox="0 0 24.263 24.258"><path d="M12.129,8.147a6.219,6.219,0,1,0,6.219,6.219A6.209,6.209,0,0,0,12.129,8.147Zm0,10.263a4.043,4.043,0,1,1,4.043-4.043,4.051,4.051,0,0,1-4.043,4.043ZM20.053,7.893A1.451,1.451,0,1,1,18.6,6.442,1.447,1.447,0,0,1,20.053,7.893Zm4.119,1.472a7.179,7.179,0,0,0-1.959-5.083A7.226,7.226,0,0,0,17.13,2.323c-2-.114-8.006-.114-10.008,0A7.216,7.216,0,0,0,2.039,4.277,7.2,7.2,0,0,0,.08,9.36c-.114,2-.114,8.006,0,10.008a7.179,7.179,0,0,0,1.959,5.083A7.235,7.235,0,0,0,7.122,26.41c2,.114,8.006.114,10.008,0a7.179,7.179,0,0,0,5.083-1.959,7.226,7.226,0,0,0,1.959-5.083c.114-2,.114-8,0-10ZM21.585,21.517a4.094,4.094,0,0,1-2.306,2.306c-1.6.633-5.386.487-7.15.487s-5.559.141-7.15-.487a4.094,4.094,0,0,1-2.306-2.306c-.633-1.6-.487-5.386-.487-7.15s-.141-5.559.487-7.15A4.094,4.094,0,0,1,4.979,4.91c1.6-.633,5.386-.487,7.15-.487s5.559-.141,7.15.487a4.094,4.094,0,0,1,2.306,2.306c.633,1.6.487,5.386.487,7.15S22.218,19.925,21.585,21.517Z" transform="translate(0.005 -2.238)"/></svg>