<svg xmlns="http://www.w3.org/2000/svg" width="77.002" height="67.772" viewBox="0 0 77.002 67.772"><g transform="translate(-1600.998 -5042.088)"><path d="M1623.914,5062.5q-2.727-2.672-2.727-7.572v-2.493q0-4.059,3.014-4.059,3.06,0,3.062,4.074v6.293h7.876v-6.294a9.964,9.964,0,0,0-3.012-7.384,11.992,11.992,0,0,0-15.8-.006,9.947,9.947,0,0,0-3.011,7.376v4.851q0,5.938,3.111,9.008l8.3,8.216q2.763,2.725,2.765,7.623v3.286q0,4.058-3.076,4.057-3.225,0-3.225-4.073v-6.294h-7.876v6.294a9.814,9.814,0,0,0,3.115,7.361,12.171,12.171,0,0,0,16.022-.021,9.941,9.941,0,0,0,2.917-7.326v-5.641q0-5.94-3.123-9.059Z"/><path d="M1674.753,5045.083a12.771,12.771,0,0,0-16.435,0,9.568,9.568,0,0,0-3.272,7.345v32.993a9.572,9.572,0,0,0,3.272,7.347,12.782,12.782,0,0,0,16.435,0,9.609,9.609,0,0,0,3.247-7.347v-32.993A9.605,9.605,0,0,0,1674.753,5045.083Zm-4.629,40.33q0,4.062-3.577,4.061-3.625,0-3.624-4.061v-32.978q0-4.062,3.624-4.061,3.576,0,3.577,4.061Z"/><rect width="0.724" height="5.409" transform="translate(1601.822 5104.322)"/><path d="M1608.327,5108.237c0,.29.008.528.023.716h-.015a4.473,4.473,0,0,0-.335-.693l-2.293-3.938h-.876v5.409h.647v-3.916c0-.285-.008-.523-.023-.716h.015a4.369,4.369,0,0,0,.336.693l2.293,3.939h.876v-5.409h-.648Z"/><path d="M1610.575,5104.931h1.7v4.8H1613v-4.8h1.7v-.608h-4.121Z"/><path d="M1617.02,5107.262h2.5v-.609h-2.5v-1.722h2.628v-.608H1616.3v5.409h3.405v-.609h-2.681Z"/><path d="M1625.221,5106.828a1.552,1.552,0,0,0,.293-.922,1.943,1.943,0,0,0-.084-.586,1.493,1.493,0,0,0-.275-.5,1.24,1.24,0,0,0-.556-.364,2.531,2.531,0,0,0-.875-.134h-2v5.409h.724v-2.248h1.1l1.326,2.248h.815l-1.386-2.347A1.487,1.487,0,0,0,1625.221,5106.828Zm-2.777.046v-1.943h1.2q1.111,0,1.112.975t-1.112.968Z"/><path d="M1628.341,5108.26a.913.913,0,0,1-.229.716.9.9,0,0,1-.609.2,4.037,4.037,0,0,1-.641-.038v.67a2.625,2.625,0,0,0,.633.053,1.741,1.741,0,0,0,1.131-.354,1.447,1.447,0,0,0,.439-1.192v-3.992h-.724Z"/><path d="M1631.959,5107.262h2.5v-.609h-2.5v-1.722h2.628v-.608h-3.352v5.409h3.4v-.609h-2.681Z"/><path d="M1640.16,5106.828a1.553,1.553,0,0,0,.293-.922,1.939,1.939,0,0,0-.084-.586,1.505,1.505,0,0,0-.274-.5,1.251,1.251,0,0,0-.556-.364,2.54,2.54,0,0,0-.876-.134h-2v5.409h.724v-2.248h1.1l1.326,2.248h.815l-1.387-2.347A1.484,1.484,0,0,0,1640.16,5106.828Zm-2.777.046v-1.943h1.2q1.111,0,1.112.975t-1.112.968Z"/><path d="M1644.392,5104.192a2.29,2.29,0,0,0-1.806.758,3.524,3.524,0,0,0,0,4.14,2.5,2.5,0,0,0,3.6.008,3.541,3.541,0,0,0,0-4.148A2.278,2.278,0,0,0,1644.392,5104.192Zm1.257,4.468a1.63,1.63,0,0,1-2.518-.007,3.16,3.16,0,0,1,0-3.261,1.638,1.638,0,0,1,2.518,0,3.2,3.2,0,0,1,0,3.268Z"/><path d="M1654.965,5108.237c0,.29.008.528.023.716h-.015a4.475,4.475,0,0,0-.335-.693l-2.293-3.938h-.876v5.409h.647v-3.916c0-.285-.008-.523-.023-.716h.015a4.378,4.378,0,0,0,.336.693l2.293,3.939h.876v-5.409h-.648Z"/><path d="M1659.338,5104.322l-2.049,5.409h.746l.557-1.562h2.209l.556,1.562h.746l-2.049-5.409Zm-.533,3.238.754-2.111a3.859,3.859,0,0,0,.129-.412h.016a3.883,3.883,0,0,0,.13.412l.753,2.111Z"/><path d="M1666.53,5108.481a3.248,3.248,0,0,0-.138.51h-.015a3.109,3.109,0,0,0-.137-.51l-1.433-4.159h-1.028v5.409h.663v-4.175a4.482,4.482,0,0,0-.031-.579h.031a3.2,3.2,0,0,0,.16.617l1.432,4.137h.7l1.433-4.137a3.131,3.131,0,0,0,.159-.617h.031a4.664,4.664,0,0,0-.031.579v4.175h.663v-5.409h-1.028Z"/><path d="M1672.715,5104.322l-2.049,5.409h.746l.557-1.562h2.209l.556,1.562h.746l-2.049-5.409Zm-.533,3.238.754-2.111a3.856,3.856,0,0,0,.129-.412h.016a3.855,3.855,0,0,0,.13.412l.753,2.111Z"/><rect width="0.724" height="5.409" transform="translate(1677.157 5104.322)"/><rect width="7.666" height="52.741" transform="translate(1600.998 5042.565)"/><path d="M1651.135,5058.821l2.6-6.511H1647.6v-9.772h-7.878v42.41a9.661,9.661,0,0,0,3.24,7.337,11.669,11.669,0,0,0,8.169,3.022v-7.214q-3.531-.015-3.531-4.067v-25.205Z"/></g></svg>