
<svg xmlns="http://www.w3.org/2000/svg" width="54.902" height="38.269" viewBox="0 0 54.902 38.269"><g transform="translate(-1598.549 -19.777)"><path d="M1614.888,34.329a7.214,7.214,0,0,1-1.945-5.4V27.153q0-2.9,2.149-2.894,2.182,0,2.184,2.9V31.65h5.615V27.163a7.1,7.1,0,0,0-2.148-5.265,8.549,8.549,0,0,0-11.268,0,7.088,7.088,0,0,0-2.147,5.259v3.458q0,4.234,2.218,6.423l5.918,5.858a7.288,7.288,0,0,1,1.972,5.436v2.343q0,2.893-2.194,2.893-2.3,0-2.3-2.9V46.172h-5.615V50.66a7,7,0,0,0,2.221,5.248,8.676,8.676,0,0,0,11.424-.015,7.089,7.089,0,0,0,2.079-5.223V46.647q0-4.234-2.226-6.459Z"/><path d="M1651.136,21.912a9.107,9.107,0,0,0-11.718,0,6.823,6.823,0,0,0-2.333,5.237V50.673a6.824,6.824,0,0,0,2.333,5.239,9.11,9.11,0,0,0,11.718,0,6.851,6.851,0,0,0,2.315-5.239V27.149A6.85,6.85,0,0,0,1651.136,21.912Zm-3.3,28.756q0,2.9-2.55,2.9-2.586,0-2.585-2.9V27.154q0-2.9,2.585-2.895,2.548,0,2.55,2.895Z"/><rect width="5.466" height="37.605" transform="translate(1598.549 20.117)"/><path d="M1634.3,31.708l1.852-4.642h-4.369V20.1h-5.617V50.336a6.889,6.889,0,0,0,2.31,5.232,8.319,8.319,0,0,0,5.824,2.154V52.579q-2.517-.01-2.517-2.9V31.708Z"/></g></svg>
